<svg width="314" height="377" viewBox="0 0 314 377" fill="none" xmlns="http://www.w3.org/2000/svg">
<path d="M224.953 53.1214C223.926 51.4787 221.736 50.9996 220.093 52.0262C219.956 52.0947 219.888 52.1631 219.82 52.2316L219.614 61.7455V61.8139L224.337 57.7072C225.637 56.5436 225.911 54.5587 224.953 53.1214Z" fill="#B9C6E4"/>
<path d="M131.251 106.852L131.594 121.089L149.595 120.13L146.72 95.0795L140.012 85.0181L128.24 96.38L131.251 106.852Z" fill="#B9C6E4"/>
<path d="M1 223.689C1 182.758 45.8316 149.562 101.067 149.562C156.302 149.562 201.134 182.758 201.134 223.689C201.134 264.619 156.302 297.815 101.067 297.815V322.797C101.067 324.098 99.9718 325.193 98.6713 325.193C98.1922 325.193 97.6446 325.056 97.3024 324.714L37.6866 280.977C15.2366 267.425 1 246.755 1 223.689Z" stroke="#B9C6E4" stroke-miterlimit="10"/>
<path d="M131.32 232.106C134.798 232.106 137.617 229.286 137.617 225.809C137.617 222.331 134.798 219.512 131.32 219.512C127.842 219.512 125.023 222.331 125.023 225.809C125.023 229.286 127.842 232.106 131.32 232.106Z" fill="#B9C6E4"/>
<path d="M101.067 232.106C104.545 232.106 107.364 229.286 107.364 225.809C107.364 222.331 104.545 219.512 101.067 219.512C97.5893 219.512 94.77 222.331 94.77 225.809C94.77 229.286 97.5893 232.106 101.067 232.106Z" fill="#B9C6E4"/>
<path d="M70.7457 232.106C74.2234 232.106 77.0427 229.286 77.0427 225.809C77.0427 222.331 74.2234 219.512 70.7457 219.512C67.268 219.512 64.4487 222.331 64.4487 225.809C64.4487 229.286 67.268 232.106 70.7457 232.106Z" fill="#B9C6E4"/>
<path d="M136.796 73.1772V111.507C136.796 112.944 135.632 114.107 134.195 114.107C132.757 114.107 131.594 112.944 131.594 111.507V73.1772" fill="#FBD7AD"/>
<path d="M199.08 93.5056L198.875 68.3862H214.344L222.215 89.4674" fill="#B9C6E4"/>
<path d="M214.344 68.3862H198.875L198.943 76.4628C201.613 78.4477 204.898 79.4744 208.252 79.3375C211.469 79.2006 214.617 78.037 217.081 75.9152L214.344 68.3862Z" fill="#495894"/>
<path d="M239.463 338.266L239.121 351.818L226.39 358.868C226.39 358.868 221.941 348.738 222.01 348.601C222.078 348.464 223.515 327.041 223.515 327.041L239.463 338.266Z" fill="#B9C6E4"/>
<path d="M205.856 75.5738C198.943 75.5738 191.141 69.8244 190.593 61.8848L189.566 49.9753C188.95 43.1992 193.947 37.2445 200.723 36.6285C201.134 36.6285 201.476 36.5601 201.887 36.5601H208.526C215.713 36.5601 220.709 42.7201 220.093 49.9069L219.819 61.8163C219.477 69.3453 211.332 75.5738 205.856 75.5738Z" fill="#B9C6E4"/>
<path d="M197.37 96.3117V88.7143L220.436 82.1436L224.474 90.357L252.263 88.7827C257.944 88.4405 263.214 91.4521 265.883 96.4486L287.649 137.79C290.113 142.444 290.523 147.919 288.675 152.916L269.032 207.672L252.605 194.804L263.83 147.03L246.924 120.747L243.775 166.263L197.438 161.403L189.43 144.908L160.478 176.598C156.371 181.594 148.979 182.347 143.982 178.241C142.75 177.214 141.724 175.914 140.971 174.476L128.924 116.845L149.732 115.75L156.234 144.976L172.319 110.275C174.851 105.483 179.232 101.856 184.502 100.282L197.37 96.3117Z" fill="#F7C689"/>
<path d="M197.164 160.924L191.346 177.214C188.129 186.112 186.829 195.557 187.445 205.003L197.164 353.255H228.238L224.679 317.321L220.641 200.417L238.779 259.69L224.474 315.405L225.774 328.546L245.555 345.521L269.579 271.326C271.427 265.645 271.496 259.553 269.784 253.804L243.707 166.468L197.164 160.924Z" fill="#495894"/>
<path d="M191.346 148.945L181.216 124.374" stroke="#F27932" stroke-miterlimit="10"/>
<path d="M160.868 57.6549C164.36 42.8661 155.203 28.0465 140.414 24.5544C125.625 21.0623 110.805 30.2202 107.313 45.009C103.821 59.7979 112.979 74.6175 127.768 78.1096C142.557 81.6016 157.376 72.4438 160.868 57.6549Z" fill="white" stroke="#FBD7AD" stroke-miterlimit="9.9984"/>
<path d="M185.323 53.1897C186.35 51.547 188.54 51.0679 190.183 52.0946C190.32 52.163 190.388 52.2315 190.457 52.2999L190.662 61.8138V61.8823L185.939 57.7756C184.639 56.612 184.365 54.6271 185.323 53.1897Z" fill="#B9C6E4"/>
<path d="M222.899 183.579L220.641 202.538" stroke="white" stroke-miterlimit="10"/>
<path d="M221.188 197.884L229.128 198.089" stroke="white" stroke-miterlimit="10"/>
<path d="M190.183 56.6126L188.745 45.7299C188.54 41.8285 190.935 38.2009 194.631 36.9004L200.312 34.8471L197.985 32.5199C202.297 30.3981 207.157 29.6452 211.948 30.1928C217.15 30.8088 220.983 35.2577 220.914 40.528L220.093 54.354L219.409 49.0152C218.45 44.4294 214.275 41.2809 209.621 41.6231L199.491 42.3076C194.905 42.5814 191.209 46.1405 190.73 50.7264L190.456 53.1904L190.183 56.6126Z" fill="#4B4065"/>
<path d="M253.973 195.967C253.973 195.967 249.935 207.877 249.456 209.246C249.456 209.246 251.989 209.862 255.137 204.591L264.103 234.639C265.746 233.338 266.636 231.285 266.567 229.232C266.567 225.536 265.951 215.337 265.951 215.337L269.031 207.808" fill="#B9C6E4"/>
<path d="M200.792 64.3465C203.461 64.3465 207.704 64.1411 210.305 64.1411C209.689 65.3731 208.731 66.4682 207.636 67.2896C206.541 67.974 205.24 68.1109 204.008 67.6318C202.845 67.1527 200.928 65.3731 200.792 64.3465Z" fill="white"/>
<path d="M155.823 142.786L159.382 154.148" stroke="#F27932" stroke-miterlimit="10"/>
<path d="M263.761 147.098L273.891 149.904" stroke="#F27932" stroke-miterlimit="10"/>
<path d="M184.365 150.519L181.969 126.427L189.361 144.975L184.365 150.519Z" fill="#F27932"/>
<path d="M197.369 96.3116L224.405 90.4253" stroke="#F27932" stroke-miterlimit="10"/>
<path d="M202.366 352.912L201.681 364.548L183.27 369.202C181.216 369.749 179.505 371.255 178.821 373.309L178.068 375.362L224.2 373.24C226.116 373.103 227.485 371.461 227.348 369.613C227.348 369.544 227.348 369.544 227.348 369.476L225.774 352.707" fill="#B9C6E4"/>
<path d="M227.348 344.083L193.263 341.55L194.974 353.186H228.17L227.348 344.083Z" fill="#495894"/>
<path d="M249.388 332.106L224.405 315.268L251.715 333.611L246.65 346.411L225.774 328.41" fill="#495894"/>
<path d="M176.699 376.664L228.786 374.2V364.686L215.028 364.754C213.249 364.001 211.811 362.496 210.579 361.058C209.347 359.621 207.978 358.047 206.199 357.225C204.419 356.404 202.092 356.336 200.723 357.704C200.176 359.758 199.491 362.085 198.944 364.207C193.4 365.37 187.445 366.876 181.832 368.108C180.395 368.382 179.163 369.272 178.342 370.504C177.178 372.283 176.836 374.542 176.151 376.048C176.014 376.322 176.151 376.595 176.425 376.732C176.494 376.664 176.494 376.664 176.699 376.664Z" fill="#4B4065"/>
<path d="M239.463 350.927L241.996 358.114L255.069 361.673C257.396 362.289 258.765 364.685 258.08 367.012C258.08 367.081 258.08 367.149 258.012 367.149L257.601 368.381H232.619C232.619 368.381 226.116 363.795 226.595 363.932L225.979 354.829L230.223 354.144L235.699 349.832C236.725 349.011 238.163 349.148 238.984 350.175C239.258 350.448 239.395 350.654 239.463 350.927Z" fill="#4B4065"/>
<path opacity="0.37" d="M101.067 297.746H80.0542L101.067 309.45V297.746Z" fill="#495894"/>
<path d="M238.779 259.622L248.019 261.538" stroke="#4B4065" stroke-miterlimit="10"/>
<path opacity="0.32" d="M147.359 72.5921C159.129 65.3189 162.774 49.8816 155.5 38.1119C148.227 26.3423 132.79 22.6972 121.02 29.9704C109.251 37.2436 105.606 52.6808 112.879 64.4505C120.152 76.2201 135.589 79.8652 147.359 72.5921Z" fill="#F7C689"/>
<path d="M123.106 43.1976V46.2092C123.106 46.7567 123.586 47.2358 124.133 47.2358C124.681 47.2358 125.16 46.7567 125.16 46.2092V43.1976C125.16 42.65 124.681 42.1709 124.133 42.1709C123.586 42.1709 123.106 42.65 123.106 43.1976Z" fill="#F27932"/>
<path d="M140.833 43.1976V46.2092C140.833 46.7567 141.313 47.2358 141.86 47.2358C142.408 47.2358 142.887 46.7567 142.887 46.2092V43.1976C142.887 42.65 142.408 42.1709 141.86 42.1709C141.313 42.1709 140.833 42.65 140.833 43.1976Z" fill="#F27932"/>
<path d="M141.518 52.3689C140.081 57.297 134.947 60.1032 130.019 58.5974C126.939 57.7076 124.544 55.2436 123.722 52.1636" stroke="#F27932" stroke-width="2" stroke-miterlimit="10" stroke-linecap="round" stroke-linejoin="round"/>
<path d="M196.685 59.6927C199.444 59.6927 201.681 57.4557 201.681 54.6962C201.681 51.9367 199.444 49.6997 196.685 49.6997C193.925 49.6997 191.688 51.9367 191.688 54.6962C191.688 57.4557 193.925 59.6927 196.685 59.6927Z" stroke="#495894" stroke-miterlimit="10"/>
<path d="M213.043 59.6927C215.803 59.6927 218.04 57.4557 218.04 54.6962C218.04 51.9367 215.803 49.6997 213.043 49.6997C210.284 49.6997 208.047 51.9367 208.047 54.6962C208.047 57.4557 210.284 59.6927 213.043 59.6927Z" stroke="#495894" stroke-miterlimit="10"/>
<path d="M201.682 54.492C203.598 53.1231 206.199 53.1231 208.184 54.492" stroke="#495894" stroke-miterlimit="10"/>
<path d="M196.343 341.756L227.348 344.083" stroke="#4B4065" stroke-miterlimit="10"/>
<path d="M251.715 333.611L224.542 315.268" stroke="#4B4065" stroke-miterlimit="10"/>
<path d="M128.445 86.5921L137.822 92.1361C137.685 93.7788 136.248 94.9424 134.605 94.8055C134.194 94.7371 133.784 94.6002 133.373 94.3948L124.817 89.3299L125.023 88.1663C125.228 86.9343 126.46 86.113 127.692 86.3867C127.897 86.3867 128.24 86.4552 128.445 86.5921Z" fill="#B9C6E4"/>
<path d="M125.023 88.5088L138.78 96.3116C138.643 98.5018 136.043 99.5969 133.989 98.4333L124.338 92.8893L125.023 88.5088Z" fill="#B9C6E4"/>
<path d="M124.475 91.5889L136.658 98.7756C136.522 100.418 135.084 101.582 133.441 101.445C133.031 101.377 132.62 101.24 132.209 101.034L123.654 95.9694L124.475 91.5889Z" fill="#B9C6E4"/>
<path d="M123.791 95.353L134.4 101.65C134.263 103.087 133.031 104.114 131.594 103.977C131.252 103.909 130.841 103.84 130.499 103.635L123.038 99.186L123.791 95.353Z" fill="#B9C6E4"/>
<path d="M143.161 104.662L147.199 96.038C147.405 95.2166 147.405 94.3268 147.062 93.5739L142.819 82.4174L130.704 80.5693C130.704 80.5693 129.13 85.0867 137.206 86.1134L140.286 94.3953L143.161 104.662Z" fill="#B9C6E4"/>
<path d="M123.791 95.353L134.4 101.65" stroke="#495894" stroke-width="0.25" stroke-miterlimit="10"/>
<path d="M124.475 91.5889L137.274 98.981" stroke="#495894" stroke-width="0.25" stroke-miterlimit="10"/>
<path d="M125.091 88.1665L137.001 94.8057" stroke="#495894" stroke-width="0.25" stroke-miterlimit="10"/>
<path d="M200.997 55.4493C200.039 52.8484 197.164 51.5479 194.631 52.5061C193.673 52.8483 192.783 53.5328 192.236 54.4226C194.905 56.4759 198.054 56.4759 200.997 55.4493Z" fill="white"/>
<path d="M204.83 51.5474L202.845 59.1448L204.83 60.5137" stroke="#4B4065" stroke-miterlimit="10" stroke-linecap="round" stroke-linejoin="round"/>
<path d="M197.369 53.9444C197.369 53.2599 197.164 52.7124 196.822 52.1648C196.069 52.0964 195.316 52.1648 194.563 52.4386C193.605 52.7808 192.715 53.4653 192.167 54.3551C193.536 55.4502 195.111 55.9978 196.685 56.0662C197.164 55.5186 197.369 54.7657 197.369 53.9444Z" fill="#4B4065"/>
<path d="M217.561 54.4916C216.055 52.1644 212.975 51.48 210.716 52.9858C209.827 53.5333 209.142 54.3547 208.731 55.3129C211.743 56.8187 214.96 56.1343 217.561 54.4916Z" fill="white"/>
<path d="M213.796 53.8063C213.659 53.1903 213.317 52.6427 212.907 52.1636C212.154 52.232 211.469 52.5058 210.785 52.9165C209.895 53.464 209.21 54.2854 208.8 55.2436C210.374 55.9965 212.017 56.2018 213.591 55.9965C213.796 55.3805 213.933 54.6276 213.796 53.8063Z" fill="#4B4065"/>
<path d="M199.833 48.4682C197.643 46.8256 194.7 46.894 192.646 48.6051C195.111 48.4682 197.369 48.5367 199.833 48.4682Z" fill="#4B4065" stroke="#4B4065" stroke-linecap="round" stroke-linejoin="round"/>
<path d="M209.416 48.4682C211.606 46.8256 214.549 46.894 216.602 48.6051C214.138 48.4682 211.88 48.5367 209.416 48.4682Z" fill="#4B4065" stroke="#4B4065" stroke-linecap="round" stroke-linejoin="round"/>
<path opacity="0.32" d="M84.9138 102.266C87.2409 101.65 89.4996 100.692 91.553 99.4599C89.4996 98.1595 87.2409 97.2012 84.9138 96.5852C82.5182 95.9692 80.6702 94.1212 80.0542 91.7256C79.4382 89.3985 78.5484 87.1398 77.2479 85.0864C75.9475 87.1398 74.9892 89.3985 74.4417 91.7256C73.8257 94.1212 71.9776 95.9692 69.5821 96.5852C67.2549 97.2012 64.9962 98.1595 62.9429 99.3915C64.9962 100.692 67.2549 101.65 69.5821 102.198C71.9776 102.814 73.8257 104.662 74.4417 107.057C75.0577 109.384 76.0159 111.643 77.2479 113.697C78.5484 111.643 79.5066 109.384 80.1226 107.057C80.7386 104.73 82.5182 102.882 84.9138 102.266Z" fill="#F7C689"/>
<path opacity="0.32" d="M307.361 250.106C309.688 249.49 311.946 248.532 314 247.3C311.946 246 309.688 245.042 307.361 244.426C304.965 243.81 303.117 241.962 302.501 239.566C301.885 237.239 300.995 234.98 299.695 232.927C298.394 234.98 297.436 237.239 296.888 239.566C296.272 241.962 294.424 243.81 292.029 244.426C289.702 245.042 287.443 246 285.39 247.232C287.443 248.532 289.702 249.491 292.029 250.038C294.424 250.654 296.272 252.502 296.888 254.898C297.504 257.225 298.463 259.483 299.695 261.537C300.995 259.483 301.953 257.225 302.569 254.898C303.185 252.571 304.965 250.722 307.361 250.106Z" fill="#F7C689"/>
<path d="M111.334 0.352428L113.387 3.29557C113.524 3.43246 113.661 3.56935 113.798 3.56935L117.22 4.66448C117.631 4.80137 117.905 5.28049 117.768 5.69116C117.768 5.7596 117.699 5.82805 117.631 5.96494L115.509 8.83964C115.372 8.97653 115.372 9.18186 115.372 9.31875L115.441 12.8779C115.441 13.357 115.098 13.6992 114.619 13.6992C114.551 13.6992 114.414 13.6992 114.345 13.6308L110.923 12.5357C110.786 12.4672 110.581 12.4672 110.376 12.5357L106.953 13.6992C106.543 13.8361 106.064 13.6308 105.927 13.2201C105.927 13.1517 105.858 13.0148 105.858 12.9463L105.927 9.3872C105.927 9.18186 105.858 9.04497 105.79 8.90808L103.668 6.03338C103.394 5.69116 103.463 5.14359 103.805 4.86981C103.873 4.80137 103.942 4.80137 104.079 4.73292L107.501 3.6378C107.706 3.56935 107.843 3.50091 107.912 3.36402L109.965 0.420873C110.239 0.0102021 110.718 -0.0582426 111.128 0.215538C111.197 0.215538 111.265 0.283983 111.334 0.352428Z" fill="#F7C689"/>
<path d="M131.799 0.350174L133.852 3.29332C133.92 3.43021 134.126 3.5671 134.263 3.5671L137.685 4.66222C138.096 4.79911 138.369 5.27823 138.232 5.6889C138.232 5.75735 138.164 5.82579 138.096 5.96268L135.974 8.83738C135.837 8.97427 135.837 9.17961 135.837 9.3165L135.905 12.8757C135.905 13.3548 135.563 13.697 135.084 13.697C135.016 13.697 134.879 13.697 134.81 13.6285L131.456 12.5334C131.319 12.465 131.114 12.465 130.909 12.5334L127.487 13.697C127.076 13.8339 126.597 13.6285 126.46 13.2179C126.46 13.1494 126.391 13.0125 126.391 12.9441L126.46 9.38494C126.46 9.17961 126.391 9.04272 126.323 8.90583L124.201 6.03113C123.927 5.6889 123.996 5.14134 124.338 4.86756C124.406 4.79911 124.475 4.79911 124.612 4.73067L128.034 3.63555C128.239 3.5671 128.376 3.49865 128.445 3.36176L130.498 0.41862C130.703 0.00794841 131.251 -0.0604965 131.593 0.144839C131.593 0.144839 131.73 0.213284 131.799 0.350174Z" fill="#F7C689"/>
<path d="M152.195 0.350979L154.249 3.29412C154.317 3.43102 154.522 3.56791 154.659 3.56791L158.082 4.66303C158.492 4.79992 158.766 5.27904 158.629 5.68971C158.629 5.75815 158.561 5.89504 158.492 5.96349L156.37 8.83819C156.234 8.97508 156.234 9.18041 156.234 9.3173L156.302 12.8765C156.302 13.3556 155.96 13.6978 155.481 13.6978C155.412 13.6978 155.275 13.6978 155.207 13.6294L151.785 12.4658C151.648 12.3973 151.442 12.3973 151.237 12.4658L147.883 13.6294C147.473 13.7662 146.993 13.5609 146.857 13.1502C146.857 13.0818 146.788 12.9449 146.788 12.8765L146.857 9.3173C146.857 9.11197 146.788 8.97508 146.72 8.83819L144.598 5.96349C144.324 5.62126 144.393 5.0737 144.803 4.79992C144.872 4.73147 144.94 4.73147 145.077 4.66303L148.499 3.56791C148.705 3.49946 148.841 3.43102 148.91 3.29412L150.963 0.350979C151.237 0.00875314 151.716 -0.128137 152.127 0.145644C152.058 0.214089 152.127 0.282534 152.195 0.350979Z" fill="#F7C689"/>
</svg>
